<svg width="2920" height="570" viewBox="0 0 2920 570" fill="none" xmlns="http://www.w3.org/2000/svg">
<path d="M1417.32 462.043C1335.46 462.299 1271.51 408.324 1271.51 303.187V144.587H1340.58V303.443C1340.58 362.023 1373.32 393.999 1417.32 393.999C1459.01 393.999 1492.27 362.534 1493.04 302.164C1494.06 236.166 1454.66 203.678 1408.62 206.492C1404.02 206.748 1391.48 208.795 1389.69 209.306L1388.16 205.981L1411.43 143.052C1414.76 142.029 1426.01 140.75 1429.34 140.75C1504.29 139.215 1562.62 197.027 1561.08 300.629C1559.55 399.626 1495.34 461.787 1417.32 462.043ZM1735.56 462.811C1653.45 463.066 1587.96 402.952 1587.96 300.629C1587.96 199.841 1651.4 136.145 1735.56 136.401C1821.26 136.401 1882.91 198.051 1882.91 300.629C1882.91 398.859 1818.7 462.555 1735.56 462.811ZM1736.07 397.068C1782.63 397.068 1816.14 359.721 1816.4 300.885C1816.65 241.538 1781.61 203.167 1734.79 203.167C1689 203.167 1654.98 238.98 1655.24 300.629C1655.75 361.511 1690.03 397.068 1736.07 397.068ZM1915.67 330.047V144.587H1985.5V330.047H1915.67ZM2018.78 453.857V386.58H2109.59V297.559C2109.59 265.584 2103.45 242.049 2090.41 228.747C2078.64 216.98 2062.52 211.864 2042.06 212.12L2028.25 212.376V144.075L2056.13 143.82C2129.29 143.564 2177.89 187.307 2177.89 280.42V453.857H2018.78ZM2280.24 453.857L2367.47 212.887H2204.77V52.2407H2273.07V144.587H2454.18V170.423L2350.07 453.857H2280.24ZM2614.34 453.857V211.864H2476.46V144.587H2732.27L2732.78 211.864H2683.41V453.857H2614.34ZM2760.17 453.857V386.58H2850.98V297.559C2850.98 265.584 2844.84 242.049 2831.8 228.747C2820.03 216.98 2803.91 211.864 2783.45 212.12L2769.63 212.376V144.075L2797.52 143.82C2870.68 143.564 2919.28 187.307 2919.28 280.42V453.857H2760.17Z" fill="#121B28"/>
<path d="M809.878 37.7984C861.266 -12.2584 943.18 -12.2583 994.568 37.7984L1145.32 184.638L1146.51 185.813C1171.34 210.619 1185.31 244.297 1185.31 279.441V398.548C1185.31 471.64 1126.06 530.892 1052.97 530.892H764.415C764.497 530.911 764.539 530.933 764.539 530.963C764.539 531.018 764.456 530.992 764.292 530.892H762.539C747.962 531.738 657.778 545.051 627.841 569.519C652.752 537.37 656.85 511.213 637.994 466.678C626.294 447.232 619.451 424.533 619.144 400.258L619.133 398.548V279.441C619.133 243.739 633.558 209.551 659.132 184.639L809.878 37.7984ZM950.826 82.7046C923.78 56.359 880.667 56.3589 853.62 82.7046L702.874 229.544L702.248 230.163C689.179 243.218 681.822 260.944 681.822 279.441V398.548L681.828 399.449C682.307 437.203 712.822 467.72 750.577 468.198L751.478 468.203H1052.97L1053.87 468.198C1091.63 467.72 1122.14 437.203 1122.62 399.448L1122.62 398.548V279.441C1122.62 260.944 1115.27 243.218 1102.2 230.163L1101.57 229.544L950.826 82.7046ZM836.525 367.726L837.336 368.256C854.438 379.309 877.581 385.33 901.592 385.33C925.983 385.33 949.492 379.116 966.691 367.722L981.365 358.002L1000.81 387.349L986.134 397.07C962.003 413.056 931.351 420.533 901.592 420.533C872.298 420.533 842.145 413.288 818.207 397.809L817.072 397.066L802.402 387.338L821.856 358L836.525 367.726Z" fill="#121B28"/>
<path d="M434.885 452.685H359.891L324.367 388.216H110.787L75.2632 452.685H0.268846L172.624 143.059H262.091L434.885 452.685ZM217.358 194.809L141.048 333.395H294.106L217.358 194.809ZM461.223 143.059H528.323V452.685H461.223V143.059Z" fill="#121B28"/>
</svg>
