<svg width="2920" height="570" viewBox="0 0 2920 570" fill="none" xmlns="http://www.w3.org/2000/svg">
<path d="M1417.32 462.053C1335.46 462.308 1271.51 408.333 1271.51 303.196V144.596H1340.58V303.452C1340.58 362.032 1373.32 394.008 1417.32 394.008C1459.01 394.008 1492.27 362.544 1493.04 302.173C1494.06 236.175 1454.66 203.688 1408.62 206.502C1404.02 206.757 1391.48 208.804 1389.69 209.315L1388.16 205.99L1411.43 143.061C1414.76 142.038 1426.01 140.759 1429.34 140.759C1504.29 139.224 1562.62 197.037 1561.08 300.638C1559.55 399.636 1495.34 461.797 1417.32 462.053ZM1735.56 462.82C1653.45 463.076 1587.96 402.961 1587.96 300.638C1587.96 199.851 1651.4 136.155 1735.56 136.41C1821.26 136.41 1882.91 198.06 1882.91 300.638C1882.91 398.868 1818.7 462.564 1735.56 462.82ZM1736.07 397.078C1782.63 397.078 1816.14 359.73 1816.4 300.894C1816.65 241.547 1781.61 203.176 1734.79 203.176C1689 203.176 1654.98 238.989 1655.24 300.638C1655.75 361.52 1690.03 397.078 1736.07 397.078ZM1915.67 330.056V144.596H1985.5V330.056H1915.67ZM2018.78 453.867V386.59H2109.59V297.569C2109.59 265.593 2103.45 242.059 2090.41 228.757C2078.64 216.99 2062.52 211.873 2042.06 212.129L2028.25 212.385V144.085L2056.13 143.829C2129.29 143.573 2177.89 187.316 2177.89 280.43V453.867H2018.78ZM2280.24 453.867L2367.47 212.897H2204.77V52.25H2273.07V144.596H2454.18V170.433L2350.07 453.867H2280.24ZM2614.34 453.867V211.873H2476.46V144.596H2732.27L2732.78 211.873H2683.41V453.867H2614.34ZM2760.17 453.867V386.59H2850.98V297.569C2850.98 265.593 2844.84 242.059 2831.8 228.757C2820.03 216.99 2803.91 211.873 2783.45 212.129L2769.63 212.385V144.085L2797.52 143.829C2870.68 143.573 2919.28 187.316 2919.28 280.43V453.867H2760.17Z" fill="white"/>
<path d="M809.878 37.8067C861.266 -12.25 943.18 -12.25 994.568 37.8067L1145.32 184.647L1146.51 185.821C1171.34 210.627 1185.31 244.305 1185.31 279.449V398.557C1185.31 471.648 1126.06 530.9 1052.97 530.9H764.42C764.498 530.919 764.539 530.941 764.539 530.971C764.539 531.026 764.456 531 764.293 530.9H762.528C747.918 531.752 657.771 545.065 627.841 569.526C652.751 537.379 656.849 511.222 637.995 466.69C626.294 447.243 619.451 424.542 619.144 400.267L619.133 398.557V279.449C619.133 243.747 633.558 209.559 659.132 184.648L809.878 37.8067ZM950.826 82.713C923.78 56.3673 880.667 56.3672 853.62 82.713L702.874 229.553L702.248 230.171C689.179 243.227 681.822 260.952 681.822 279.449V398.557L681.828 399.457C682.307 437.212 712.823 467.728 750.577 468.206L751.478 468.211H1052.97L1053.87 468.206C1091.63 467.728 1122.14 437.211 1122.62 399.456L1122.62 398.557V279.449C1122.62 260.952 1115.27 243.227 1102.2 230.171L1101.57 229.553L950.826 82.713ZM836.525 367.734L837.336 368.265C854.438 379.317 877.581 385.338 901.592 385.338C925.983 385.338 949.492 379.125 966.691 367.731L981.365 358.01L1000.81 387.358L986.134 397.078C962.003 413.064 931.351 420.541 901.592 420.541C872.298 420.541 842.145 413.296 818.207 397.817L817.072 397.074L802.402 387.347L821.856 358.008L836.525 367.734Z" fill="white"/>
<path d="M434.885 452.694H359.891L324.367 388.226H110.787L75.2632 452.694H0.268846L172.624 143.069H262.091L434.885 452.694ZM217.358 194.819L141.048 333.405H294.106L217.358 194.819ZM461.223 143.069H528.323V452.694H461.223V143.069Z" fill="white"/>
</svg>
