<svg width="2920" height="570" viewBox="0 0 2920 570" fill="none" xmlns="http://www.w3.org/2000/svg">
<path d="M1417.32 462.048C1335.46 462.304 1271.51 408.329 1271.51 303.192V144.592H1340.58V303.448C1340.58 362.028 1373.32 394.004 1417.32 394.004C1459.01 394.004 1492.27 362.539 1493.04 302.169C1494.06 236.171 1454.66 203.683 1408.62 206.497C1404.02 206.753 1391.48 208.799 1389.69 209.311L1388.16 205.986L1411.43 143.057C1414.76 142.034 1426.01 140.755 1429.34 140.755C1504.29 139.22 1562.62 197.032 1561.08 300.634C1559.55 399.631 1495.34 461.792 1417.32 462.048ZM1735.56 462.816C1653.45 463.071 1587.96 402.957 1587.96 300.634C1587.96 199.846 1651.4 136.15 1735.56 136.406C1821.26 136.406 1882.91 198.056 1882.91 300.634C1882.91 398.864 1818.7 462.56 1735.56 462.816ZM1736.07 397.073C1782.63 397.073 1816.14 359.725 1816.4 300.89C1816.65 241.543 1781.61 203.172 1734.79 203.172C1689 203.172 1654.98 238.985 1655.24 300.634C1655.75 361.516 1690.03 397.073 1736.07 397.073ZM1915.67 330.052V144.592H1985.5V330.052H1915.67ZM2018.78 453.862V386.585H2109.59V297.564C2109.59 265.588 2103.45 242.054 2090.41 228.752C2078.64 216.985 2062.52 211.869 2042.06 212.125L2028.25 212.381V144.08L2056.13 143.824C2129.29 143.569 2177.89 187.312 2177.89 280.425V453.862H2018.78ZM2280.24 453.862L2367.47 212.892H2204.77V52.2456H2273.07V144.592H2454.18V170.428L2350.07 453.862H2280.24ZM2614.34 453.862V211.869H2476.46V144.592H2732.27L2732.78 211.869H2683.41V453.862H2614.34ZM2760.17 453.862V386.585H2850.98V297.564C2850.98 265.588 2844.84 242.054 2831.8 228.752C2820.03 216.985 2803.91 211.869 2783.45 212.125L2769.63 212.381V144.08L2797.52 143.824C2870.68 143.569 2919.28 187.312 2919.28 280.425V453.862H2760.17Z" fill="#00A6A2"/>
<path d="M809.878 37.8018C861.266 -12.2549 943.18 -12.2549 994.568 37.8018L1145.32 184.642L1146.51 185.816C1171.34 210.623 1185.31 244.3 1185.31 279.444V398.552C1185.31 471.643 1126.06 530.896 1052.97 530.896H764.42C764.498 530.914 764.539 530.936 764.539 530.966C764.539 531.021 764.456 530.995 764.293 530.896H762.528C747.918 531.747 657.771 545.06 627.841 569.522C652.751 537.374 656.849 511.217 637.995 466.685C626.294 447.238 619.451 424.537 619.144 400.262L619.133 398.552V279.444C619.133 243.742 633.558 209.554 659.132 184.643L809.878 37.8018ZM950.826 82.7081C923.78 56.3624 880.667 56.3623 853.62 82.7081L702.874 229.548L702.248 230.166C689.179 243.222 681.822 260.947 681.822 279.444V398.552L681.828 399.452C682.307 437.207 712.823 467.723 750.577 468.201L751.478 468.206H1052.97L1053.87 468.201C1091.63 467.723 1122.14 437.206 1122.62 399.451L1122.62 398.552V279.444C1122.62 260.947 1115.27 243.222 1102.2 230.166L1101.57 229.548L950.826 82.7081ZM836.525 367.73L837.336 368.26C854.438 379.312 877.581 385.333 901.592 385.333C925.982 385.333 949.492 379.12 966.691 367.726L981.365 358.005L1000.81 387.353L986.134 397.073C962.003 413.059 931.351 420.536 901.592 420.536C872.298 420.536 842.145 413.291 818.207 397.813L817.072 397.069L802.402 387.342L821.856 358.003L836.525 367.73Z" fill="#00A6A2"/>
<path d="M434.885 452.69H359.891L324.367 388.221H110.787L75.2632 452.69H0.268846L172.624 143.064H262.091L434.885 452.69ZM217.358 194.815L141.048 333.401H294.106L217.358 194.815ZM461.223 143.064H528.323V452.69H461.223V143.064Z" fill="#00A6A2"/>
</svg>
