<svg width="631" height="635" viewBox="0 0 631 635" fill="none" xmlns="http://www.w3.org/2000/svg">
<path d="M242.699 409.491L243.601 410.082C262.641 422.386 288.405 429.089 315.135 429.089C342.289 429.089 368.462 422.173 387.61 409.488L403.945 398.665L425.59 431.337L409.253 442.159C382.389 459.956 348.266 468.28 315.135 468.281C282.523 468.281 248.954 460.215 222.304 442.982L221.04 442.156L204.71 431.326L226.367 398.663L242.699 409.491Z" fill="white"/>
<path fill-rule="evenodd" clip-rule="evenodd" d="M214.38 40.8954C271.665 -13.5326 361.883 -13.1002 418.645 42.1914L586.469 205.666L587.794 206.974C615.438 234.59 631 272.081 631 311.206V443.808C630.999 525.179 565.034 591.143 483.663 591.143H162.444C162.519 591.162 162.557 591.186 162.558 591.216C162.557 591.277 162.468 591.251 162.291 591.143H160.251C143.772 592.129 43.6498 606.947 10.3761 634.141C38.1098 598.35 42.6705 569.229 21.6778 519.648C8.34942 497.493 0.681851 471.546 0.681641 443.808V311.206C0.681806 271.46 16.7397 233.399 45.2107 205.666L213.033 42.1914L214.38 40.8954ZM369.948 92.185C339.837 62.855 291.841 62.8548 261.731 92.185L93.9084 255.659L93.2106 256.348C78.6619 270.882 70.4723 290.615 70.4721 311.206V443.808L70.4783 444.809C71.0109 486.841 104.984 520.814 147.015 521.346L148.018 521.352H483.663L484.665 521.346C526.696 520.814 560.669 486.841 561.202 444.809L561.208 443.808V311.206C561.208 290.615 553.018 270.882 538.469 256.348L537.772 255.659L369.948 92.185Z" fill="white"/>
</svg>
