<svg width="631" height="635" viewBox="0 0 631 635" fill="none" xmlns="http://www.w3.org/2000/svg">
<path d="M242.699 409.486L243.601 410.076C262.641 422.38 288.405 429.083 315.135 429.083C342.289 429.083 368.462 422.168 387.61 409.483L403.945 398.66L425.59 431.332L409.253 442.153C382.389 459.95 348.266 468.275 315.135 468.275C282.523 468.275 248.954 460.209 222.304 442.977L221.04 442.15L204.71 431.321L226.367 398.658L242.699 409.486Z" fill="#121B28"/>
<path fill-rule="evenodd" clip-rule="evenodd" d="M214.38 40.89C271.665 -13.5379 361.883 -13.1056 418.645 42.186L586.469 205.66L587.794 206.969C615.438 234.584 631 272.076 631 311.201V443.802C630.999 525.173 565.034 591.137 483.663 591.137H162.444C162.519 591.157 162.557 591.181 162.558 591.211C162.557 591.272 162.468 591.245 162.291 591.137H160.251C143.772 592.123 43.6498 606.941 10.3761 634.136C38.1098 598.345 42.6705 569.223 21.6778 519.643C8.34942 497.488 0.681851 471.541 0.681641 443.802V311.201C0.681806 271.455 16.7397 233.394 45.2107 205.66L213.033 42.186L214.38 40.89ZM369.948 92.1796C339.837 62.8496 291.841 62.8494 261.731 92.1796L93.9084 255.654L93.2106 256.343C78.6619 270.877 70.4723 290.609 70.4721 311.201V443.802L70.4783 444.804C71.0109 486.835 104.984 520.808 147.015 521.341L148.018 521.347H483.663L484.665 521.341C526.696 520.809 560.669 486.835 561.202 444.804L561.208 443.802V311.201C561.208 290.609 553.018 270.877 538.469 256.343L537.772 255.654L369.948 92.1796Z" fill="#121B28"/>
</svg>
